<svg width="8" height="8" viewBox="0 0 8 8" fill="none" xmlns="http://www.w3.org/2000/svg">
<path d="M7.67738 6.74874C7.90153 6.97069 7.90153 7.33054 7.67738 7.55248C7.45322 7.77443 7.08979 7.77443 6.86564 7.55249L4.06511 4.77955L1.13415 7.68163C0.909998 7.90358 0.54657 7.90358 0.322414 7.68163C0.0982583 7.45968 0.0982576 7.09984 0.322413 6.87789L3.25337 3.97581L0.37172 1.12255C0.147565 0.9006 0.147565 0.540752 0.37172 0.318805C0.595876 0.0968573 0.959304 0.0968565 1.18346 0.318804L4.06511 3.17207L6.81633 0.447951C7.04049 0.226004 7.40392 0.226004 7.62807 0.447951C7.85223 0.669898 7.85223 1.02975 7.62807 1.25169L4.87685 3.97581L7.67738 6.74874Z" fill="#161616"/>
</svg>
